<svg width="24px" height="24px" fill="currentColor" xmlns="http://www.w3.org/2000/svg" viewBox="0 0 352.52 403.03"><path fill="currentColor" d="M180.71,254.92c-2.13-5.1-4.62-10.94-7.27-17.14a110.8,110.8,0,1,1,69.4-42.95c6.84-.6,14.5-1.05,22.61-1.23a128.83,128.83,0,1,0-240.2-64.75c0,71,57.8,128.84,128.85,128.84A129,129,0,0,0,180.71,254.92Z" transform="translate(-25.25)"/><path fill="#00a2ff" d="M161.4,209.84l-.25-.58C151.23,186.31,141,162.57,135,147.74l-.3-.73-.17-.76c-2.11-9.39-.25-18.61,5.11-25.31a23.59,23.59,0,0,1,18.47-9c5.3,0,13.3,1.75,21.33,10.11l.67.7.53.82c14.83,23.38,26.84,42.66,35.94,57.3a81.32,81.32,0,1,0-62.49,29.29C156.56,210.18,159,210.05,161.4,209.84Z" transform="translate(-25.25)"/><path fill="currentColor" d="M190.72,294.26c8,.2,7.8-11.75,6.51-23.68-2.83-10.66-39.52-92.41-53.21-126.46-4.13-18.36,13.29-31.08,28.42-15.32,23.29,36.68,39.11,62.48,49.32,78.75,21.31-4.77,93.34-9.56,120.93,9,19.4,34.17,21.52,88,26.09,101.46,4.29,16.9,8.17,18.43,9,25.39,0,4,0,7.64-4.26,12.35-3.67,2.74-52.31,34.53-67.35,43.91-9.47,4.75-15.91,3.4-18.48,2.53-5.29-1.16-8.72-3.69-11.93-6-33.62-29-52.39-33.93-70.23-40.82-15.18-4.87-20.31-11-45.25-30.19-6.64-5.1-21.4-17.19-44.49-28.08a9.13,9.13,0,0,1-4.56-3.34c-5-7.42,4.65-21.91,14.25-22.47,11.06-1.77,23.81-2.31,41.93,10.52C176.43,286.93,190.72,294.26,190.72,294.26Z" transform="translate(-25.25)"/></svg>